<svg width="1024" height="1024" viewBox="0 0 1024 1024" fill="none" xmlns="http://www.w3.org/2000/svg">
  <defs>
    <linearGradient id="bg" x1="144" y1="112" x2="896" y2="928" gradientUnits="userSpaceOnUse">
      <stop stop-color="#1D4ED8"/>
      <stop offset="1" stop-color="#0F172A"/>
    </linearGradient>
    <linearGradient id="panel" x1="248" y1="276" x2="768" y2="708" gradientUnits="userSpaceOnUse">
      <stop stop-color="#F8FAFC" stop-opacity="0.98"/>
      <stop offset="1" stop-color="#DBEAFE" stop-opacity="0.94"/>
    </linearGradient>
    <linearGradient id="arrow" x1="524" y1="410" x2="760" y2="410" gradientUnits="userSpaceOnUse">
      <stop stop-color="#2563EB"/>
      <stop offset="1" stop-color="#14B8A6"/>
    </linearGradient>
    <filter id="shadow" x="162" y="180" width="700" height="616" filterUnits="userSpaceOnUse" color-interpolation-filters="sRGB">
      <feFlood flood-opacity="0" result="BackgroundImageFix"/>
      <feColorMatrix in="SourceAlpha" type="matrix" values="0 0 0 0 0 0 0 0 0 0 0 0 0 0 0 0 0 0 127 0" result="hardAlpha"/>
      <feOffset dy="24"/>
      <feGaussianBlur stdDeviation="28"/>
      <feComposite in2="hardAlpha" operator="out"/>
      <feColorMatrix type="matrix" values="0 0 0 0 0.0313726 0 0 0 0 0.101961 0 0 0 0 0.239216 0 0 0 0.2 0"/>
      <feBlend mode="normal" in2="BackgroundImageFix" result="effect1_dropShadow_1_1"/>
      <feBlend mode="normal" in="SourceGraphic" in2="effect1_dropShadow_1_1" result="shape"/>
    </filter>
  </defs>

  <rect x="72" y="72" width="880" height="880" rx="212" fill="url(#bg)"/>

  <circle cx="792" cy="284" r="28" fill="#7DD3FC" fill-opacity="0.24"/>
  <circle cx="840" cy="332" r="18" fill="#5EEAD4" fill-opacity="0.24"/>
  <circle cx="882" cy="378" r="12" fill="#F8FAFC" fill-opacity="0.34"/>

  <g filter="url(#shadow)">
    <rect x="218" y="236" width="588" height="504" rx="88" fill="url(#panel)"/>
    <rect x="218" y="236" width="588" height="504" rx="88" stroke="#EFF6FF" stroke-opacity="0.78" stroke-width="8"/>

    <circle cx="308" cy="320" r="14" fill="#2563EB" fill-opacity="0.88"/>
    <circle cx="350" cy="320" r="14" fill="#0F172A" fill-opacity="0.24"/>
    <circle cx="392" cy="320" r="14" fill="#0F172A" fill-opacity="0.16"/>

    <path d="M318 510L402 430C414 418 434 426 434 444V576C434 594 414 602 402 590L318 510Z" fill="#0F172A" fill-opacity="0.88"/>
    <rect x="458" y="472" width="44" height="76" rx="22" fill="#0F172A" fill-opacity="0.88"/>

    <path d="M560 412C560 394.327 574.327 380 592 380H702C719.673 380 734 394.327 734 412V430C734 447.673 719.673 462 702 462H592C574.327 462 560 447.673 560 430V412Z" fill="#0F172A" fill-opacity="0.12"/>
    <path d="M560 522C560 504.327 574.327 490 592 490H760L706 620H592C574.327 620 560 605.673 560 588V522Z" fill="url(#arrow)"/>
    <path d="M760 490L814 555L760 620V490Z" fill="#14B8A6"/>

    <rect x="286" y="648" width="190" height="26" rx="13" fill="#0F172A" fill-opacity="0.12"/>
    <rect x="496" y="648" width="124" height="26" rx="13" fill="#0F172A" fill-opacity="0.08"/>
    <rect x="286" y="690" width="320" height="18" rx="9" fill="#0F172A" fill-opacity="0.08"/>
  </g>
</svg>
